<svg id="Capa_1" enable-background="new 0 0 512 512" height="512" viewBox="0 0 512 512" width="512" xmlns="http://www.w3.org/2000/svg"><g><path d="m209.896 141.547 46.116-14.766 45.992 14.755.179-48.296 28.243-39.178-45.877-15.095-28.533-38.967-28.533 38.967-45.905 15.104 28.318 39.158z"/><g><path d="m338.688 457.083c0-13.331-8.011-25.109-20.41-30.006l-62.278-24.599-62.279 24.599c-12.398 4.897-20.41 16.675-20.41 30.006v27.462c23.094 17.238 51.72 27.455 82.689 27.455s59.595-10.217 82.688-27.455z"/><path d="m256 307.665c-14.872 0-26.971 12.099-26.971 26.971v9.609c0 14.872 12.099 26.971 26.971 26.971s26.971-12.099 26.971-26.971v-9.609c0-14.872-12.099-26.971-26.971-26.971z"/><path d="m256 234.969c-76.378 0-138.516 62.138-138.516 138.515 0 30.028 9.609 57.852 25.908 80.568 1.162-24.469 16.325-45.799 39.309-54.877l34.233-13.521c-11.011-10.394-17.904-25.107-17.904-41.408v-9.609c0-31.414 25.557-56.971 56.971-56.971s56.971 25.557 56.971 56.971v9.609c0 16.301-6.893 31.014-17.904 41.408l34.233 13.521c22.983 9.078 38.146 30.409 39.309 54.877 16.299-22.715 25.908-50.539 25.908-80.568-.002-76.377-62.14-138.515-138.518-138.515z"/></g><path d="m120.605 193.69 28.242-39.178-45.877-15.096-28.533-38.966-28.532 38.966-45.905 15.105 28.318 39.157v48.319l46.116-14.766 45.991 14.755z"/><path d="m466.123 139.416-28.533-38.966-28.533 38.966-45.904 15.105 28.317 39.157v48.319l46.116-14.766 45.992 14.755.179-48.296 28.243-39.178z"/></g></svg>